<?xml version="1.0" encoding="iso-8859-1"?>
<!-- Generator: Adobe Illustrator 19.0.0, SVG Export Plug-In . SVG Version: 6.00 Build 0)  -->
<svg version="1.1" id="Layer_1" xmlns="http://www.w3.org/2000/svg" xmlns:xlink="http://www.w3.org/1999/xlink" x="0px" y="0px"
	 viewBox="0 0 512 512" style="enable-background:new 0 0 512 512;" xml:space="preserve">
<g>
	<g>
		<path d="M358.57,0H153.43c-27.195,0-49.319,22.124-49.319,49.319v413.362h-0.001c0,27.195,22.124,49.319,49.319,49.319H358.57
			c27.195,0,49.319-22.124,49.319-49.319V49.319C407.891,22.124,385.766,0,358.57,0z M124.508,49.319
			c0-15.948,12.974-28.921,28.921-28.921H358.57c15.947,0,28.921,12.974,28.921,28.921v355.589H124.508V49.319z M387.493,462.681
			L387.493,462.681c-0.001,15.947-12.975,28.921-28.922,28.921H153.43c-15.948,0-28.921-12.974-28.921-28.921v-37.374h262.984
			V462.681z"/>
	</g>
</g>
<g>
	<g>
		<path d="M270.789,34.677h-29.578c-5.632,0-10.199,4.566-10.199,10.199c0,5.633,4.567,10.199,10.199,10.199h29.578
			c5.632,0,10.199-4.566,10.199-10.199C280.988,39.243,276.421,34.677,270.789,34.677z"/>
	</g>
</g>
<g>
	<g>
		<path d="M242.204,371.251h-91.255c-5.632,0-10.199,4.566-10.199,10.199c0,5.633,4.567,10.199,10.199,10.199h91.255
			c5.632,0,10.199-4.566,10.199-10.199C252.403,375.817,247.836,371.251,242.204,371.251z"/>
	</g>
</g>
<g>
	<g>
		<path d="M282.518,371.251h-5.346c-5.632,0-10.199,4.566-10.199,10.199c0,5.633,4.567,10.199,10.199,10.199h5.346
			c5.632,0,10.199-4.566,10.199-10.199C292.717,375.817,288.15,371.251,282.518,371.251z"/>
	</g>
</g>
<g>
	<g>
		<path d="M256,430.406c-14.903,0-27.028,12.125-27.028,27.028s12.125,27.028,27.028,27.028s27.028-12.125,27.028-27.028
			S270.903,430.406,256,430.406z M256,464.064c-3.655,0-6.629-2.974-6.629-6.63s2.974-6.629,6.629-6.629s6.63,2.974,6.63,6.629
			S259.655,464.064,256,464.064z"/>
	</g>
</g>
<g>
	<g>
		<path d="M442.612,198.005c-3.984-3.983-10.44-3.983-14.425,0c-3.983,3.983-3.983,10.441,0,14.425
			c23.463,23.462,23.463,61.639,0,85.1c-3.983,3.983-3.983,10.441,0,14.425c1.992,1.992,4.602,2.987,7.212,2.987
			s5.22-0.995,7.212-2.987C474.027,280.539,474.027,229.421,442.612,198.005z"/>
	</g>
</g>
<g>
	<g>
		<path d="M470.017,170.6c-3.984-3.983-10.44-3.983-14.425,0c-3.983,3.983-3.983,10.441,0,14.425
			c18.686,18.686,28.977,43.53,28.977,69.955s-10.291,51.27-28.977,69.955c-3.983,3.983-3.983,10.441,0,14.425
			c1.992,1.992,4.602,2.987,7.212,2.987c2.61,0,5.22-0.995,7.212-2.987C516.544,292.832,516.544,217.128,470.017,170.6z"/>
	</g>
</g>
<g>
	<g>
		<path d="M83.812,212.43c3.984-3.984,3.984-10.442,0.001-14.425c-3.984-3.983-10.44-3.983-14.425,0
			c-31.416,31.416-31.416,82.533,0,113.95c1.992,1.992,4.602,2.987,7.212,2.987s5.22-0.995,7.212-2.987
			c3.983-3.983,3.983-10.441,0-14.425C60.349,274.068,60.349,235.891,83.812,212.43z"/>
	</g>
</g>
<g>
	<g>
		<path d="M27.431,254.98c0-26.426,10.291-51.27,28.977-69.955c3.983-3.983,3.983-10.441,0-14.425
			c-3.984-3.983-10.44-3.983-14.425,0c-46.527,46.528-46.527,122.232,0,168.76c1.992,1.992,4.602,2.987,7.212,2.987
			s5.22-0.995,7.212-2.987c3.983-3.983,3.983-10.441,0-14.425C37.721,306.25,27.431,281.406,27.431,254.98z"/>
	</g>
</g>
<g>
	<g>
		<path d="M358.06,280.099l-47.694-47.694c-2.619-2.618-6.45-3.613-10.015-2.595l-7.104,2.03c-1.015,0.291-1.98,0.736-2.859,1.323
			l-14.669,9.788c-17.71-12.415-33.181-28.156-45.295-46.078l10.425-10.425c1.226-1.226,2.119-2.743,2.596-4.41l2.03-7.104
			c1.018-3.562,0.023-7.394-2.595-10.015l-47.697-47.697c-2.827-2.827-7.048-3.742-10.793-2.338l-8.119,3.044
			c-1.364,0.511-2.602,1.309-3.632,2.338c-1.938,1.939-3.804,4.028-5.546,6.207c-23.54,29.472-21.155,71.832,5.546,98.534
			l77.633,77.632c14.404,14.405,33.363,21.733,52.398,21.732c16.254,0,32.564-5.343,46.138-16.187
			c2.179-1.741,4.266-3.606,6.205-5.545c1.029-1.03,1.827-2.267,2.338-3.631l3.044-8.119
			C361.802,287.147,360.888,282.927,358.06,280.099z M336.079,292.253c-21.345,17.05-52.032,15.315-71.379-4.034l-77.633-77.632
			c-19.349-19.349-21.082-50.035-4.034-71.379c0.783-0.98,1.598-1.933,2.44-2.849l38.31,38.311l-13.591,13.592
			c-3.331,3.331-3.947,8.51-1.491,12.531c15.402,25.2,36.656,46.986,61.469,63.005c3.415,2.204,7.81,2.17,11.194-0.085
			l18.872-12.593l38.696,38.696C338.011,290.656,337.058,291.471,336.079,292.253z"/>
	</g>
</g>
<g>
</g>
<g>
</g>
<g>
</g>
<g>
</g>
<g>
</g>
<g>
</g>
<g>
</g>
<g>
</g>
<g>
</g>
<g>
</g>
<g>
</g>
<g>
</g>
<g>
</g>
<g>
</g>
<g>
</g>
</svg>
